# xmcd
#
# Track frame offsets: 
#        150
#        12697
#        30416
#        52162
#        70552
#        88593
#        110624
#        137446
#        163566
#
# Disc length: 2456 seconds
#
# Revision: 0
# Processed by: cddbd v1.5.2PL0 Copyright (c) Steve Scherf et al.
# Submitted via: ExactAudioCopy v1.1
#
DISCID=70099609
DTITLE=Jon Cleary - Go Go Juice
DYEAR=2015
DGENRE=Funk
TTITLE0=Pump It Up
TTITLE1=Boneyard
TTITLE2=Brother I'm Hungry
TTITLE3=Getcha GoGo Juice
TTITLE4=Beg Steal Or Borrow
TTITLE5=Step Into My Life
TTITLE6=Bringing Back The Home
TTITLE7=9-5
TTITLE8=Love On One Condition
EXTD=
EXTT0=
EXTT1=
EXTT2=
EXTT3=
EXTT4=
EXTT5=
EXTT6=
EXTT7=
EXTT8=
PLAYORDER=
